# xmcd
#
# Track frame offsets:
# 150
# 19655
# 48739
# 89009
# 116352
# 156134
# 174384
# 197815
# 241867
# 274816
#
# Disc length: 3927 seconds
#
#
# Revision: 1
# Processed by: cddbd v1.5.1PL0 Copyright (c) Steve Scherf et al.
# Submitted via: FreeRIP 2.93 
#
DISCID=820f550a
DTITLE=Deva Premal - dakshina
DYEAR=2005
DGENRE=New Age
TTITLE0=Om Hraum Mitraya
TTITLE1=Om Namah Shivaya
TTITLE2=Guru Rinpoche Mantra
TTITLE3=Aad Guray
TTITLE4=Homage to Krishna
TTITLE5=Om Purnam I
TTITLE6=Om Purnam II
TTITLE7=Brahma Nandam
TTITLE8=Om Triambakam
TTITLE9=Video Brahma Nandam
EXTD=YEAR: 2005
EXTT0=
EXTT1=
EXTT2=
EXTT3=
EXTT4=
EXTT5=
EXTT6=
EXTT7=
EXTT8=
EXTT9=
PLAYORDER=
